<svg version="1.1" xmlns="http://www.w3.org/2000/svg" xmlns:xlink="http://www.w3.org/1999/xlink" width="200.54769" height="399.34402" viewBox="608.09894,306.15598,200.54769,399.34402"><g fill-opacity="0" fill="#000000" fill-rule="nonzero" stroke="#000000" stroke-width="1" stroke-linecap="round" stroke-linejoin="round" stroke-miterlimit="10" stroke-dasharray="" stroke-dashoffset="0" font-family="none" font-weight="none" font-size="none" text-anchor="none" style="mix-blend-mode: normal"><path d="M690,705c-2.98028,-14.97834 5.24657,-30.68363 -9.48276,-41.57379c-8.07017,-5.9667 -17.94742,-8.32714 -27.68358,-9.83667c-4.94716,-0.76702 -10.52756,-0.76159 -15.23021,-2.55791c-7.02952,-2.68514 -9.76824,-8.45989 -9.53246,-15.63015c0.43351,-13.18326 10.28194,-26.2866 19.79997,-34.59034c22.83505,-19.92178 54.30215,-30.53111 83.26422,-37.86152c8.85543,-2.24134 17.61943,-4.73105 26.13751,-8.0499c3.36599,-1.31147 7.90252,-2.49592 10.70955,-4.82278c6.19575,-5.13591 2.80662,-14.77448 -2.83762,-19.01718c-11.06619,-8.3183 -24.797,-11.29849 -38.26052,-12.8296c-10.25487,-1.16621 -20.57918,-1.51907 -30.88888,-1.79982c-5.14054,-0.11244 -5.79632,-0.115 -12.0726,-0.3355c-3.58111,-0.12581 -6.55186,-0.27592 -10.12819,-0.50411c-3.43663,-0.21928 -6.88247,-0.47831 -10.30539,-0.86297c-11.53547,-1.29633 -36.39746,-5.49254 -29.89201,-23.31352c1.53022,-4.19187 3.73485,-7.86655 6.78164,-11.12456c4.7998,-5.13255 10.84092,-9.06506 16.94752,-12.45335c32.51022,-18.03856 68.67178,-28.47971 102.22737,-44.24457c13.15711,-6.18138 30.60691,-12.87122 40.7983,-23.60011c3.2138,-3.3833 3.36989,-4.01677 5.54638,-8.31521c8.54103,-16.868 -8.98742,-30.02691 -23.46481,-33.68995c-31.86383,-8.06211 -69.43817,-1.71056 -100.59895,6.91711c-11.27253,3.39007 -21.9687,7.95758 -32.14267,13.87603c-7.41226,4.31189 -14.40014,9.34236 -22.06158,13.22353c-2.89198,1.46504 -6.50646,3.48829 -9.87698,3.38338c-5.42351,-0.16881 -8.04885,-5.45838 -8.8718,-10.20888c-1.39491,-8.05211 2.59053,-16.56132 7.23534,-22.91535c10.18507,-13.93301 25.26722,-22.12218 39.28028,-31.52617c9.29845,-6.24007 18.21625,-12.35409 20.16076,-24.08016" id="Path 1"/></g></svg>