<svg version="1.1" xmlns="http://www.w3.org/2000/svg" xmlns:xlink="http://www.w3.org/1999/xlink" width="329.56055" height="544.17536" viewBox="518.25,87.25,329.56055,544.17536"><g fill-opacity="0" fill="#000000" fill-rule="nonzero" stroke="#000000" stroke-width="1.5" stroke-linecap="round" stroke-linejoin="round" stroke-miterlimit="10" stroke-dasharray="5,10" stroke-dashoffset="0" font-family="none" font-weight="none" font-size="none" text-anchor="none" style="mix-blend-mode: normal"><path d="M519,88c43.5267,39.0769 96.40974,66.70081 155.13292,73.16013c31.12381,3.4235 62.65706,2.40819 93.90808,4.16554c15.78282,0.88752 32.1089,1.32181 47.23053,6.43247c18.1027,6.11816 38.77292,20.60461 29.49324,42.62299c-1.33852,3.17597 -2.81714,5.66177 -5.00976,8.35382c-2.95804,3.63182 -6.58993,6.71794 -10.44504,9.35335c-9.40207,6.42742 -20.98398,9.67776 -31.98165,12.19527c-19.643,4.49654 -39.74352,6.5929 -59.39393,11.07072c-31.69544,7.22257 -62.54549,17.76622 -94.01452,25.89542c-4.9539,1.2565 -10.08624,2.32251 -14.93712,3.95735c-16.12547,5.43459 -37.30999,19.22573 -28.48413,39.16562c1.01441,2.29181 2.52182,4.94231 4.4158,6.62599c3.37889,3.0037 6.18511,5.04651 10.14266,7.07555c11.91886,6.1108 25.81216,7.7136 38.98337,8.64458c17.71354,1.25204 35.47064,1.6462 53.1962,2.64376c11.14813,0.62739 25.74052,3.57844 25.70463,17.81934c-0.03924,15.57018 -16.67677,26.22754 -28.62119,33.1236c-15.21988,8.78713 -32.22657,13.59674 -48.49068,20.02135c-18.46183,7.29275 -36.17013,16.15392 -52.42067,27.59693c-19.49824,14.09797 -46.69178,41.32387 -24.88099,65.20371c2.80092,3.06663 6.07723,5.7121 9.53932,7.98974c7.51165,4.94176 15.66843,8.019 24.16483,10.83116c4.74427,1.57027 13.62358,4.06326 18.34886,5.52372c7.01109,2.16693 13.71276,4.28919 20.51157,7.05865c21.36313,8.70217 59.22691,23.5171 50.01417,53.6156c-1.51956,4.96449 -3.79795,9.70552 -6.51701,14.12174c-4.18865,6.80308 -9.44076,12.73491 -15.03157,18.40726" id="Path 1"/></g></svg>