<svg version="1.1" xmlns="http://www.w3.org/2000/svg" xmlns:xlink="http://www.w3.org/1999/xlink" width="700" height="700" viewBox="370,58.5,700,700"><g id="document" fill="#ffffff" fill-rule="nonzero" stroke="#000000" stroke-width="0" stroke-linecap="butt" stroke-linejoin="miter" stroke-miterlimit="10" stroke-dasharray="" stroke-dashoffset="0" font-family="none" font-weight="none" font-size="none" text-anchor="none" style="mix-blend-mode: normal"><rect x="370" y="41.78571" transform="scale(1,1.4)" width="700" height="500" id="Shape 1 1" vector-effect="non-scaling-stroke"/></g><g fill-opacity="0" fill="#000000" fill-rule="nonzero" stroke="#000000" stroke-width="1" stroke-linecap="round" stroke-linejoin="round" stroke-miterlimit="10" stroke-dasharray="10,10" stroke-dashoffset="0" font-family="none" font-weight="none" font-size="none" text-anchor="none" style="mix-blend-mode: normal"><g id="stage"><g id="layer1 1"><path d="M656.98418,116c-12.99824,7.61984 -26.05115,15.12302 -39.36508,22.0387c-8.70714,4.52277 -17.56872,8.67367 -26.44913,12.74876c-28.44052,13.05094 -57.56336,24.25289 -74.21292,55.25762c-10.12791,18.86014 -12.76943,36.9035 2.97059,54.10943c6.00363,6.56276 15.19929,12.88 22.92121,15.94107c12.74318,5.05155 29.12352,8.95161 42.87403,10.43012c61.6019,6.62366 122.72375,-20.25272 184.60986,-12.33851c4.59813,0.58802 11.00515,1.59288 15.79244,2.58448c26.46773,5.48229 68.53761,17.5378 68.69811,55.86992c0.02441,5.8302 -1.19739,11.54167 -2.9722,17c-1.92605,5.92347 -4.65153,11.96604 -8.18092,16.90479c-5.10928,7.14951 -11.04137,13.25387 -17.95641,18.16279c-11.53866,8.19119 -24.578,13.18569 -37.48583,17.91865c-43.18784,14.72255 -88.93643,15.15618 -131.87175,31.38753c-11.51701,4.35391 -34.51545,10.93684 -34.61197,27.89978c-0.0496,8.7184 6.2952,15.74723 12.42202,20.04011c12.41165,8.69648 27.48342,11.23068 41.77173,12.91734c11.69109,1.38008 23.43217,2.16922 35.14167,3.32086c9.61106,0.94525 19.2131,2.00225 28.81169,3.09365c7.46451,0.84875 14.90545,1.79922 22.31136,3.16038c6.37574,1.17182 12.70097,2.6913 18.98398,4.37033c25.05411,6.69532 69.60559,18.4011 59.12897,58.96594c-1.48522,5.75064 -3.98883,12.29316 -6.75356,17.58068c-4.96276,9.49118 -11.62401,17.72902 -19.27945,24.59083c-11.14547,9.99002 -24.13581,16.6548 -37.19002,22.87361c-27.21472,11.68047 -54.80969,16.14625 -83.77245,17.49785c-20.07097,0.93664 -44.30908,-1.38375 -59.7553,15.67329" id="Path 1"/></g></g></g></svg>